<svg width="668" height="119" viewBox="0 0 668 119" fill="none" xmlns="http://www.w3.org/2000/svg">
<path d="M428.977 47.1468L428.978 31.194L418.515 31.1933L418.514 52.2739L428.977 47.1468ZM441.487 56.0356L441.485 87.1437C441.485 94.5504 437.731 98.0825 429.884 98.0821L406 98.0805L406.005 19L430.913 19.0016C437.509 19.002 441.489 22.8765 441.489 29.8274L441.488 46.4639C441.488 51.5916 439.895 54.6682 435.914 56.0353L441.487 56.0356ZM428.975 85.7755L428.976 60.3649L418.513 65.6059L418.511 85.7749L428.975 85.7755Z" fill="white"/>
<path d="M486.356 98.0856L473.39 98.0848L473.392 64.5838L463.838 69.483L463.837 98.0842L450.871 98.0834L450.875 29.828C450.876 22.8771 454.743 19.0031 461.34 19.0035L475.784 19.0044C482.38 19.0048 486.36 22.8794 486.36 29.8302L486.356 98.0856ZM473.393 50.6821L473.394 31.5387L463.841 31.538L463.839 55.3534L473.393 50.6821Z" fill="white"/>
<path d="M518.486 50.9128L518.487 31.5415L508.934 31.5409L508.932 55.6981L518.486 50.9128ZM531.451 58.2064L521.897 63.1056L536.68 98.0888L523.146 98.088L510.865 68.8023L508.932 69.8277L508.93 98.0871L495.964 98.0862L495.969 19.0057L520.877 19.0073C527.473 19.0077 531.454 22.8822 531.453 29.8331L531.451 58.2064Z" fill="white"/>
<path d="M563.701 47.1554L563.702 31.2025L553.239 31.2019L553.238 52.2824L563.701 47.1554ZM576.211 56.0442L576.209 87.1522C576.209 94.5589 572.456 98.0911 564.608 98.0906L540.724 98.0891L540.729 19.0086L565.637 19.0101C572.233 19.0105 576.213 22.8851 576.213 29.8359L576.212 46.4725C576.212 51.6002 574.619 54.6767 570.639 56.0438L576.211 56.0442ZM563.699 85.7841L563.701 60.3735L553.237 65.6144L553.236 85.7834L563.699 85.7841Z" fill="white"/>
<path d="M616.872 98.0939L585.595 98.0919L585.6 19.0114L616.877 19.0134L616.876 31.6617L598.565 31.6605L598.564 52.0574L616.875 42.8287L616.874 56.9584L598.563 66.301L598.562 85.4444L616.872 85.4456L616.872 98.0939Z" fill="white"/>
<path d="M647.324 50.921L647.325 31.5497L637.771 31.5491L637.77 55.7063L647.324 50.921ZM660.289 58.2146L650.735 63.1138L665.518 98.097L651.984 98.0961L639.703 68.8105L637.769 69.8359L637.767 98.0952L624.802 98.0944L624.807 19.0139L649.714 19.0155C656.311 19.0159 660.291 22.8904 660.291 29.8413L660.289 58.2146Z" fill="white"/>
<path d="M441.987 56.0357L441.987 55.5357L441.487 55.5356L438.129 55.5354C439.188 54.8594 440.016 53.9876 440.629 52.9063C441.584 51.2204 441.988 49.072 441.988 46.464L441.989 29.8274C441.989 26.2576 440.966 23.411 439.03 21.4562C437.094 19.5011 434.308 18.5018 430.913 18.5016L406.005 18.5L405.505 18.5L405.505 19L405.5 98.0805L405.5 98.5805L406 98.5805L429.884 98.5821C433.872 98.5823 436.921 97.686 438.97 95.7544C441.026 93.8172 441.985 90.9259 441.985 87.1437L441.987 56.0357ZM486.356 98.5856L486.856 98.5857L486.856 98.0857L486.86 29.8303C486.86 26.2604 485.837 23.4138 483.901 21.4591C481.965 19.5039 479.179 18.5046 475.784 18.5044L461.34 18.5035C457.944 18.5033 455.185 19.5025 453.276 21.46C451.369 23.4158 450.376 26.262 450.375 29.828L450.371 98.0834L450.371 98.5834L450.871 98.5834L463.837 98.5842L464.337 98.5842L464.337 98.0842L464.338 69.7886L472.892 65.4022L472.89 98.0848L472.89 98.5848L473.39 98.5848L486.356 98.5856ZM531.679 58.6513L531.951 58.5119L531.951 58.2064L531.953 29.8331C531.953 26.2633 530.93 23.4167 528.994 21.462C527.058 19.5068 524.272 18.5075 520.877 18.5073L495.969 18.5057L495.469 18.5057L495.469 19.0057L495.464 98.0862L495.464 98.5862L495.964 98.5862L508.93 98.5871L509.43 98.5871L509.43 98.0871L509.432 70.1285L510.616 69.5005L522.685 98.2813L522.814 98.5879L523.146 98.588L536.68 98.5888L537.435 98.5889L537.141 97.8942L522.539 63.3386L531.679 58.6513ZM576.711 56.0442L576.711 55.5442L576.211 55.5442L572.853 55.544C573.912 54.8679 574.74 53.9961 575.353 52.9148C576.308 51.229 576.712 49.0806 576.712 46.4725L576.713 29.836C576.713 26.2661 575.69 23.4195 573.754 21.4648C571.818 19.5096 569.032 18.5103 565.637 18.5101L540.729 18.5086L540.229 18.5085L540.229 19.0085L540.224 98.0891L540.224 98.5891L540.724 98.5891L564.608 98.5906C568.596 98.5909 571.645 97.6946 573.694 95.763C575.75 93.8258 576.709 90.9345 576.709 87.1523L576.711 56.0442ZM616.872 98.5939L617.372 98.594L617.372 98.094L617.372 85.4456L617.372 84.9456L616.872 84.9456L599.062 84.9445L599.063 66.6072L617.101 57.4037L617.374 57.2646L617.374 56.9584L617.375 42.8287L617.375 42.0168L616.65 42.3822L599.064 51.2455L599.065 32.1606L616.876 32.1617L617.376 32.1617L617.376 31.6617L617.377 19.0134L617.377 18.5134L616.877 18.5134L585.6 18.5114L585.1 18.5114L585.1 19.0114L585.095 98.0919L585.095 98.5919L585.595 98.5919L616.872 98.5939ZM660.517 58.6595L660.789 58.5201L660.789 58.2146L660.791 29.8413C660.791 26.2715 659.767 23.4249 657.832 21.4701C655.895 19.5149 653.11 18.5157 649.714 18.5155L624.807 18.5139L624.307 18.5139L624.307 19.0139L624.302 98.0944L624.302 98.5944L624.802 98.5944L637.767 98.5952L638.267 98.5953L638.267 98.0953L638.269 70.1367L639.453 69.5087L651.523 98.2895L651.651 98.5961L651.984 98.5961L665.518 98.597L666.272 98.5971L665.979 97.9024L651.376 63.3468L660.517 58.6595ZM419.015 31.6934L428.478 31.694L428.477 46.835L419.014 51.4721L419.015 31.6934ZM419.013 65.9147L428.476 61.1746L428.475 85.2755L419.011 85.2749L419.013 65.9147ZM464.341 32.0381L472.894 32.0386L472.893 50.37L464.339 54.5523L464.341 32.0381ZM509.434 32.0409L517.987 32.0415L517.986 50.604L509.432 54.8884L509.434 32.0409ZM553.739 31.7019L563.202 31.7025L563.201 46.8436L553.738 51.4806L553.739 31.7019ZM553.737 65.9232L563.2 61.1831L563.199 85.284L553.736 85.2834L553.737 65.9232ZM638.271 32.0491L646.825 32.0497L646.824 50.6122L638.27 54.8966L638.271 32.0491Z" stroke="#FFB100"/>
<mask id="path-3-outside-1_133_5" maskUnits="userSpaceOnUse" x="117" y="15" width="276" height="96" fill="black">
<rect fill="white" x="117" y="15" width="276" height="96"/>
<path d="M168.78 77.48C168.78 80.12 168.12 82.54 166.8 84.74C165.48 86.94 163.72 88.7 161.52 90.02C159.32 91.34 156.9 92 154.26 92H133.14C130.5 92 128.043 91.34 125.77 90.02C123.57 88.7 121.81 86.94 120.49 84.74C119.17 82.54 118.51 80.12 118.51 77.48V32.27C118.51 29.5567 119.17 27.1 120.49 24.9C121.81 22.7 123.57 20.94 125.77 19.62C128.043 18.3 130.5 17.64 133.14 17.64H154.26C156.9 17.64 159.32 18.3 161.52 19.62C163.72 20.94 165.48 22.7 166.8 24.9C168.12 27.1 168.78 29.5567 168.78 32.27V35.24C168.78 36.6333 168.267 37.8067 167.24 38.76C166.287 39.7133 165.113 40.19 163.72 40.19H160.75C159.357 40.19 158.147 39.7133 157.12 38.76C156.167 37.8067 155.69 36.6333 155.69 35.24V32.27C155.69 31.2433 155.213 30.73 154.26 30.73H133.14C132.773 30.73 132.407 30.8767 132.04 31.17C131.747 31.4633 131.6 31.83 131.6 32.27V77.48C131.6 77.8467 131.747 78.2133 132.04 78.58C132.407 78.8733 132.773 79.02 133.14 79.02H154.26C154.627 79.02 154.957 78.8733 155.25 78.58C155.543 78.2133 155.69 77.8467 155.69 77.48V62.74C155.69 61.86 155.25 61.42 154.37 61.42H146.56C145.167 61.42 143.957 60.9433 142.93 59.99C141.977 58.9633 141.5 57.7533 141.5 56.36V53.28C141.5 51.8867 141.977 50.7133 142.93 49.76C143.957 48.8067 145.167 48.33 146.56 48.33H163.72C165.113 48.33 166.287 48.8067 167.24 49.76C168.267 50.7133 168.78 51.8867 168.78 53.28V77.48ZM194.307 24.68C194.307 26.9533 193.464 28.9333 191.777 30.62C190.164 32.2333 188.257 33.04 186.057 33.04C183.784 33.04 181.804 32.2333 180.117 30.62C178.504 28.9333 177.697 26.9533 177.697 24.68C177.697 22.48 178.504 20.5733 180.117 18.96C181.804 17.2733 183.784 16.43 186.057 16.43C188.257 16.43 190.164 17.2733 191.777 18.96C193.464 20.5733 194.307 22.48 194.307 24.68ZM192.547 86.94C192.547 88.3333 192.034 89.5433 191.007 90.57C190.054 91.5233 188.88 92 187.487 92H184.517C183.124 92 181.914 91.5233 180.887 90.57C179.934 89.5433 179.457 88.3333 179.457 86.94V41.29C179.457 39.8967 179.934 38.7233 180.887 37.77C181.914 36.7433 183.124 36.23 184.517 36.23H187.487C188.88 36.23 190.054 36.7433 191.007 37.77C192.034 38.7233 192.547 39.8967 192.547 41.29V86.94ZM242.976 97.28C242.976 99.48 242.426 101.497 241.326 103.33C240.226 105.237 238.759 106.74 236.926 107.84C235.093 109.013 233.039 109.6 230.766 109.6H215.476C214.083 109.6 212.873 109.087 211.846 108.06C210.893 107.107 210.416 105.933 210.416 104.54V101.46C210.416 100.067 210.893 98.8933 211.846 97.94C212.873 96.9867 214.083 96.51 215.476 96.51H228.456C228.823 96.51 229.153 96.3633 229.446 96.07C229.813 95.7767 229.996 95.4467 229.996 95.08V93.43C229.996 93.0633 229.813 92.7333 229.446 92.44C229.153 92.1467 228.823 92 228.456 92H215.476C212.103 92 209.206 90.8267 206.786 88.48C204.366 86.06 203.156 83.1267 203.156 79.68V47.34C203.156 45.0667 203.706 43.0133 204.806 41.18C205.979 39.2733 207.483 37.77 209.316 36.67C211.149 35.57 213.203 35.02 215.476 35.02H230.766C233.039 35.02 235.093 35.57 236.926 36.67C238.759 37.77 240.226 39.2733 241.326 41.18C242.426 43.0133 242.976 45.0667 242.976 47.34V97.28ZM229.996 77.59V49.65C229.996 49.21 229.813 48.8433 229.446 48.55C229.153 48.2567 228.823 48.11 228.456 48.11H217.786C217.419 48.11 217.053 48.2567 216.686 48.55C216.393 48.8433 216.246 49.21 216.246 49.65V77.59C216.246 77.9567 216.393 78.2867 216.686 78.58C217.053 78.8733 217.419 79.02 217.786 79.02H228.456C228.823 79.02 229.153 78.8733 229.446 78.58C229.813 78.2867 229.996 77.9567 229.996 77.59ZM268.535 24.68C268.535 26.9533 267.692 28.9333 266.005 30.62C264.392 32.2333 262.485 33.04 260.285 33.04C258.012 33.04 256.032 32.2333 254.345 30.62C252.732 28.9333 251.925 26.9533 251.925 24.68C251.925 22.48 252.732 20.5733 254.345 18.96C256.032 17.2733 258.012 16.43 260.285 16.43C262.485 16.43 264.392 17.2733 266.005 18.96C267.692 20.5733 268.535 22.48 268.535 24.68ZM266.775 86.94C266.775 88.3333 266.262 89.5433 265.235 90.57C264.282 91.5233 263.109 92 261.715 92H258.745C257.352 92 256.142 91.5233 255.115 90.57C254.162 89.5433 253.685 88.3333 253.685 86.94V41.29C253.685 39.8967 254.162 38.7233 255.115 37.77C256.142 36.7433 257.352 36.23 258.745 36.23H261.715C263.109 36.23 264.282 36.7433 265.235 37.77C266.262 38.7233 266.775 39.8967 266.775 41.29V86.94ZM317.204 79.68C317.204 83.1267 315.994 86.06 313.574 88.48C311.228 90.8267 308.368 92 304.994 92H289.704C286.331 92 283.434 90.8267 281.014 88.48C278.594 86.06 277.384 83.1267 277.384 79.68V47.34C277.384 45.0667 277.934 43.0133 279.034 41.18C280.208 39.2733 281.711 37.77 283.544 36.67C285.378 35.57 287.431 35.02 289.704 35.02H304.994C307.268 35.02 309.321 35.57 311.154 36.67C312.988 37.77 314.454 39.2733 315.554 41.18C316.654 43.0133 317.204 45.0667 317.204 47.34V79.68ZM304.224 77.59V49.65C304.224 49.21 304.041 48.8433 303.674 48.55C303.381 48.2567 303.051 48.11 302.684 48.11H292.014C291.648 48.11 291.281 48.2567 290.914 48.55C290.621 48.8433 290.474 49.21 290.474 49.65V77.59C290.474 77.9567 290.621 78.2867 290.914 78.58C291.281 78.8733 291.648 79.02 292.014 79.02H302.684C303.051 79.02 303.381 78.8733 303.674 78.58C304.041 78.2867 304.224 77.9567 304.224 77.59ZM342.654 24.57C342.654 25.9633 342.361 27.54 341.774 29.3C341.261 30.9867 340.674 32.6 340.014 34.14C339.427 35.6067 338.987 36.67 338.694 37.33C338.254 38.1367 337.631 38.8333 336.824 39.42C336.017 39.9333 335.137 40.19 334.184 40.19H331.764C330.004 40.19 328.611 39.42 327.584 37.88C326.631 36.34 326.484 34.7267 327.144 33.04C327.291 32.7467 327.401 32.49 327.474 32.27C327.621 32.05 327.731 31.7933 327.804 31.5C328.171 30.84 328.097 30.0333 327.584 29.08C326.631 27.6133 326.154 26.11 326.154 24.57C326.154 22.2967 326.961 20.3533 328.574 18.74C330.187 17.0533 332.131 16.21 334.404 16.21C336.677 16.21 338.621 17.0533 340.234 18.74C341.847 20.3533 342.654 22.2967 342.654 24.57ZM391.325 79.68C391.325 83.1267 390.115 86.06 387.695 88.48C385.349 90.8267 382.489 92 379.115 92H363.825C360.452 92 357.555 90.8267 355.135 88.48C352.715 86.06 351.505 83.1267 351.505 79.68V75.17C351.505 73.7767 351.982 72.6033 352.935 71.65C353.962 70.6233 355.172 70.11 356.565 70.11H359.645C361.039 70.11 362.212 70.6233 363.165 71.65C364.119 72.6033 364.595 73.7767 364.595 75.17V77.59C364.595 78.5433 365.109 79.02 366.135 79.02H376.805C377.172 79.02 377.502 78.8733 377.795 78.58C378.162 78.2867 378.345 77.9567 378.345 77.59V73.52C378.345 72.9333 378.052 72.53 377.465 72.31L361.515 67.25C358.582 66.2233 356.162 64.4633 354.255 61.97C352.422 59.4767 351.505 56.6533 351.505 53.5V47.34C351.505 45.0667 352.055 43.0133 353.155 41.18C354.329 39.3467 355.832 37.88 357.665 36.78C359.499 35.6067 361.552 35.02 363.825 35.02H379.115C381.389 35.02 383.442 35.6067 385.275 36.78C387.109 37.88 388.575 39.3467 389.675 41.18C390.775 43.0133 391.325 45.0667 391.325 47.34V51.74C391.325 53.1333 390.849 54.3433 389.895 55.37C388.942 56.3233 387.769 56.8 386.375 56.8H383.295C381.902 56.8 380.729 56.3233 379.775 55.37C378.822 54.3433 378.345 53.1333 378.345 51.74V49.65C378.345 49.21 378.162 48.8433 377.795 48.55C377.502 48.2567 377.172 48.11 376.805 48.11H366.135C365.109 48.11 364.595 48.6233 364.595 49.65V53.5C364.595 54.2333 364.889 54.6733 365.475 54.82L381.425 59.88C384.432 60.8333 386.815 62.5567 388.575 65.05C390.409 67.5433 391.325 70.3667 391.325 73.52V79.68Z"/>
</mask>
<path d="M168.78 77.48C168.78 80.12 168.12 82.54 166.8 84.74C165.48 86.94 163.72 88.7 161.52 90.02C159.32 91.34 156.9 92 154.26 92H133.14C130.5 92 128.043 91.34 125.77 90.02C123.57 88.7 121.81 86.94 120.49 84.74C119.17 82.54 118.51 80.12 118.51 77.48V32.27C118.51 29.5567 119.17 27.1 120.49 24.9C121.81 22.7 123.57 20.94 125.77 19.62C128.043 18.3 130.5 17.64 133.14 17.64H154.26C156.9 17.64 159.32 18.3 161.52 19.62C163.72 20.94 165.48 22.7 166.8 24.9C168.12 27.1 168.78 29.5567 168.78 32.27V35.24C168.78 36.6333 168.267 37.8067 167.24 38.76C166.287 39.7133 165.113 40.19 163.72 40.19H160.75C159.357 40.19 158.147 39.7133 157.12 38.76C156.167 37.8067 155.69 36.6333 155.69 35.24V32.27C155.69 31.2433 155.213 30.73 154.26 30.73H133.14C132.773 30.73 132.407 30.8767 132.04 31.17C131.747 31.4633 131.6 31.83 131.6 32.27V77.48C131.6 77.8467 131.747 78.2133 132.04 78.58C132.407 78.8733 132.773 79.02 133.14 79.02H154.26C154.627 79.02 154.957 78.8733 155.25 78.58C155.543 78.2133 155.69 77.8467 155.69 77.48V62.74C155.69 61.86 155.25 61.42 154.37 61.42H146.56C145.167 61.42 143.957 60.9433 142.93 59.99C141.977 58.9633 141.5 57.7533 141.5 56.36V53.28C141.5 51.8867 141.977 50.7133 142.93 49.76C143.957 48.8067 145.167 48.33 146.56 48.33H163.72C165.113 48.33 166.287 48.8067 167.24 49.76C168.267 50.7133 168.78 51.8867 168.78 53.28V77.48ZM194.307 24.68C194.307 26.9533 193.464 28.9333 191.777 30.62C190.164 32.2333 188.257 33.04 186.057 33.04C183.784 33.04 181.804 32.2333 180.117 30.62C178.504 28.9333 177.697 26.9533 177.697 24.68C177.697 22.48 178.504 20.5733 180.117 18.96C181.804 17.2733 183.784 16.43 186.057 16.43C188.257 16.43 190.164 17.2733 191.777 18.96C193.464 20.5733 194.307 22.48 194.307 24.68ZM192.547 86.94C192.547 88.3333 192.034 89.5433 191.007 90.57C190.054 91.5233 188.88 92 187.487 92H184.517C183.124 92 181.914 91.5233 180.887 90.57C179.934 89.5433 179.457 88.3333 179.457 86.94V41.29C179.457 39.8967 179.934 38.7233 180.887 37.77C181.914 36.7433 183.124 36.23 184.517 36.23H187.487C188.88 36.23 190.054 36.7433 191.007 37.77C192.034 38.7233 192.547 39.8967 192.547 41.29V86.94ZM242.976 97.28C242.976 99.48 242.426 101.497 241.326 103.33C240.226 105.237 238.759 106.74 236.926 107.84C235.093 109.013 233.039 109.6 230.766 109.6H215.476C214.083 109.6 212.873 109.087 211.846 108.06C210.893 107.107 210.416 105.933 210.416 104.54V101.46C210.416 100.067 210.893 98.8933 211.846 97.94C212.873 96.9867 214.083 96.51 215.476 96.51H228.456C228.823 96.51 229.153 96.3633 229.446 96.07C229.813 95.7767 229.996 95.4467 229.996 95.08V93.43C229.996 93.0633 229.813 92.7333 229.446 92.44C229.153 92.1467 228.823 92 228.456 92H215.476C212.103 92 209.206 90.8267 206.786 88.48C204.366 86.06 203.156 83.1267 203.156 79.68V47.34C203.156 45.0667 203.706 43.0133 204.806 41.18C205.979 39.2733 207.483 37.77 209.316 36.67C211.149 35.57 213.203 35.02 215.476 35.02H230.766C233.039 35.02 235.093 35.57 236.926 36.67C238.759 37.77 240.226 39.2733 241.326 41.18C242.426 43.0133 242.976 45.0667 242.976 47.34V97.28ZM229.996 77.59V49.65C229.996 49.21 229.813 48.8433 229.446 48.55C229.153 48.2567 228.823 48.11 228.456 48.11H217.786C217.419 48.11 217.053 48.2567 216.686 48.55C216.393 48.8433 216.246 49.21 216.246 49.65V77.59C216.246 77.9567 216.393 78.2867 216.686 78.58C217.053 78.8733 217.419 79.02 217.786 79.02H228.456C228.823 79.02 229.153 78.8733 229.446 78.58C229.813 78.2867 229.996 77.9567 229.996 77.59ZM268.535 24.68C268.535 26.9533 267.692 28.9333 266.005 30.62C264.392 32.2333 262.485 33.04 260.285 33.04C258.012 33.04 256.032 32.2333 254.345 30.62C252.732 28.9333 251.925 26.9533 251.925 24.68C251.925 22.48 252.732 20.5733 254.345 18.96C256.032 17.2733 258.012 16.43 260.285 16.43C262.485 16.43 264.392 17.2733 266.005 18.96C267.692 20.5733 268.535 22.48 268.535 24.68ZM266.775 86.94C266.775 88.3333 266.262 89.5433 265.235 90.57C264.282 91.5233 263.109 92 261.715 92H258.745C257.352 92 256.142 91.5233 255.115 90.57C254.162 89.5433 253.685 88.3333 253.685 86.94V41.29C253.685 39.8967 254.162 38.7233 255.115 37.77C256.142 36.7433 257.352 36.23 258.745 36.23H261.715C263.109 36.23 264.282 36.7433 265.235 37.77C266.262 38.7233 266.775 39.8967 266.775 41.29V86.94ZM317.204 79.68C317.204 83.1267 315.994 86.06 313.574 88.48C311.228 90.8267 308.368 92 304.994 92H289.704C286.331 92 283.434 90.8267 281.014 88.48C278.594 86.06 277.384 83.1267 277.384 79.68V47.34C277.384 45.0667 277.934 43.0133 279.034 41.18C280.208 39.2733 281.711 37.77 283.544 36.67C285.378 35.57 287.431 35.02 289.704 35.02H304.994C307.268 35.02 309.321 35.57 311.154 36.67C312.988 37.77 314.454 39.2733 315.554 41.18C316.654 43.0133 317.204 45.0667 317.204 47.34V79.68ZM304.224 77.59V49.65C304.224 49.21 304.041 48.8433 303.674 48.55C303.381 48.2567 303.051 48.11 302.684 48.11H292.014C291.648 48.11 291.281 48.2567 290.914 48.55C290.621 48.8433 290.474 49.21 290.474 49.65V77.59C290.474 77.9567 290.621 78.2867 290.914 78.58C291.281 78.8733 291.648 79.02 292.014 79.02H302.684C303.051 79.02 303.381 78.8733 303.674 78.58C304.041 78.2867 304.224 77.9567 304.224 77.59ZM342.654 24.57C342.654 25.9633 342.361 27.54 341.774 29.3C341.261 30.9867 340.674 32.6 340.014 34.14C339.427 35.6067 338.987 36.67 338.694 37.33C338.254 38.1367 337.631 38.8333 336.824 39.42C336.017 39.9333 335.137 40.19 334.184 40.19H331.764C330.004 40.19 328.611 39.42 327.584 37.88C326.631 36.34 326.484 34.7267 327.144 33.04C327.291 32.7467 327.401 32.49 327.474 32.27C327.621 32.05 327.731 31.7933 327.804 31.5C328.171 30.84 328.097 30.0333 327.584 29.08C326.631 27.6133 326.154 26.11 326.154 24.57C326.154 22.2967 326.961 20.3533 328.574 18.74C330.187 17.0533 332.131 16.21 334.404 16.21C336.677 16.21 338.621 17.0533 340.234 18.74C341.847 20.3533 342.654 22.2967 342.654 24.57ZM391.325 79.68C391.325 83.1267 390.115 86.06 387.695 88.48C385.349 90.8267 382.489 92 379.115 92H363.825C360.452 92 357.555 90.8267 355.135 88.48C352.715 86.06 351.505 83.1267 351.505 79.68V75.17C351.505 73.7767 351.982 72.6033 352.935 71.65C353.962 70.6233 355.172 70.11 356.565 70.11H359.645C361.039 70.11 362.212 70.6233 363.165 71.65C364.119 72.6033 364.595 73.7767 364.595 75.17V77.59C364.595 78.5433 365.109 79.02 366.135 79.02H376.805C377.172 79.02 377.502 78.8733 377.795 78.58C378.162 78.2867 378.345 77.9567 378.345 77.59V73.52C378.345 72.9333 378.052 72.53 377.465 72.31L361.515 67.25C358.582 66.2233 356.162 64.4633 354.255 61.97C352.422 59.4767 351.505 56.6533 351.505 53.5V47.34C351.505 45.0667 352.055 43.0133 353.155 41.18C354.329 39.3467 355.832 37.88 357.665 36.78C359.499 35.6067 361.552 35.02 363.825 35.02H379.115C381.389 35.02 383.442 35.6067 385.275 36.78C387.109 37.88 388.575 39.3467 389.675 41.18C390.775 43.0133 391.325 45.0667 391.325 47.34V51.74C391.325 53.1333 390.849 54.3433 389.895 55.37C388.942 56.3233 387.769 56.8 386.375 56.8H383.295C381.902 56.8 380.729 56.3233 379.775 55.37C378.822 54.3433 378.345 53.1333 378.345 51.74V49.65C378.345 49.21 378.162 48.8433 377.795 48.55C377.502 48.2567 377.172 48.11 376.805 48.11H366.135C365.109 48.11 364.595 48.6233 364.595 49.65V53.5C364.595 54.2333 364.889 54.6733 365.475 54.82L381.425 59.88C384.432 60.8333 386.815 62.5567 388.575 65.05C390.409 67.5433 391.325 70.3667 391.325 73.52V79.68Z" fill="white"/>
<path d="M166.8 84.74L167.657 85.2545L167.657 85.2545L166.8 84.74ZM125.77 90.02L125.256 90.8775L125.262 90.8812L125.268 90.8848L125.77 90.02ZM120.49 84.74L119.633 85.2545L119.633 85.2545L120.49 84.74ZM120.49 24.9L121.347 25.4145L121.347 25.4145L120.49 24.9ZM125.77 19.62L125.268 18.7552L125.262 18.7588L125.256 18.7625L125.77 19.62ZM166.8 24.9L165.943 25.4145L165.943 25.4145L166.8 24.9ZM167.24 38.76L166.56 38.0272L166.546 38.0398L166.533 38.0529L167.24 38.76ZM157.12 38.76L156.413 39.4671L156.426 39.4802L156.44 39.4928L157.12 38.76ZM132.04 31.17L131.415 30.3891L131.372 30.4237L131.333 30.4629L132.04 31.17ZM132.04 78.58L131.259 79.2047L131.329 79.2915L131.415 79.3609L132.04 78.58ZM155.25 78.58L155.957 79.2871L155.996 79.2479L156.031 79.2047L155.25 78.58ZM142.93 59.99L142.197 60.6705L142.222 60.6976L142.25 60.7228L142.93 59.99ZM142.93 49.76L142.25 49.0272L142.236 49.0398L142.223 49.0529L142.93 49.76ZM167.24 49.76L166.533 50.4671L166.546 50.4802L166.56 50.4928L167.24 49.76ZM167.78 77.48C167.78 79.9443 167.166 82.1856 165.943 84.2255L167.657 85.2545C169.074 82.8944 169.78 80.2957 169.78 77.48H167.78ZM165.943 84.2255C164.707 86.2848 163.065 87.927 161.006 89.1625L162.034 90.8775C164.375 89.473 166.253 87.5952 167.657 85.2545L165.943 84.2255ZM161.006 89.1625C158.966 90.3865 156.724 91 154.26 91V93C157.076 93 159.674 92.2935 162.034 90.8775L161.006 89.1625ZM154.26 91H133.14V93H154.26V91ZM133.14 91C130.676 91 128.392 90.3863 126.272 89.1552L125.268 90.8848C127.694 92.2937 130.324 93 133.14 93V91ZM126.284 89.1625C124.225 87.927 122.583 86.2848 121.347 84.2255L119.633 85.2545C121.037 87.5952 122.915 89.473 125.256 90.8775L126.284 89.1625ZM121.347 84.2255C120.124 82.1856 119.51 79.9443 119.51 77.48H117.51C117.51 80.2957 118.216 82.8944 119.633 85.2545L121.347 84.2255ZM119.51 77.48V32.27H117.51V77.48H119.51ZM119.51 32.27C119.51 29.727 120.126 27.45 121.347 25.4145L119.633 24.3855C118.214 26.75 117.51 29.3863 117.51 32.27H119.51ZM121.347 25.4145C122.583 23.3552 124.225 21.713 126.284 20.4775L125.256 18.7625C122.915 20.167 121.037 22.0448 119.633 24.3855L121.347 25.4145ZM126.272 20.4848C128.392 19.2537 130.676 18.64 133.14 18.64V16.64C130.324 16.64 127.694 17.3462 125.268 18.7552L126.272 20.4848ZM133.14 18.64H154.26V16.64H133.14V18.64ZM154.26 18.64C156.724 18.64 158.966 19.2535 161.006 20.4775L162.034 18.7625C159.674 17.3465 157.076 16.64 154.26 16.64V18.64ZM161.006 20.4775C163.065 21.713 164.707 23.3552 165.943 25.4145L167.657 24.3855C166.253 22.0448 164.375 20.167 162.034 18.7625L161.006 20.4775ZM165.943 25.4145C167.164 27.45 167.78 29.727 167.78 32.27H169.78C169.78 29.3863 169.076 26.75 167.657 24.3855L165.943 25.4145ZM167.78 32.27V35.24H169.78V32.27H167.78ZM167.78 35.24C167.78 36.3535 167.384 37.2619 166.56 38.0272L167.92 39.4928C169.15 38.3514 169.78 36.9131 169.78 35.24H167.78ZM166.533 38.0529C165.774 38.8118 164.858 39.19 163.72 39.19V41.19C165.369 41.19 166.799 40.6149 167.947 39.4671L166.533 38.0529ZM163.72 39.19H160.75V41.19H163.72V39.19ZM160.75 39.19C159.611 39.19 158.643 38.8098 157.8 38.0272L156.44 39.4928C157.65 40.6168 159.103 41.19 160.75 41.19V39.19ZM157.827 38.0529C157.068 37.294 156.69 36.378 156.69 35.24H154.69C154.69 36.8886 155.265 38.3193 156.413 39.4671L157.827 38.0529ZM156.69 35.24V32.27H154.69V35.24H156.69ZM156.69 32.27C156.69 31.6202 156.541 30.9465 156.065 30.4345C155.577 29.9086 154.911 29.73 154.26 29.73V31.73C154.411 31.73 154.501 31.7507 154.548 31.7674C154.589 31.7822 154.598 31.7941 154.6 31.7954C154.601 31.7968 154.69 31.8932 154.69 32.27H156.69ZM154.26 29.73H133.14V31.73H154.26V29.73ZM133.14 29.73C132.489 29.73 131.909 29.9943 131.415 30.3891L132.665 31.9509C132.905 31.759 133.058 31.73 133.14 31.73V29.73ZM131.333 30.4629C130.84 30.956 130.6 31.5826 130.6 32.27H132.6C132.6 32.0774 132.654 31.9706 132.747 31.8771L131.333 30.4629ZM130.6 32.27V77.48H132.6V32.27H130.6ZM130.6 77.48C130.6 78.1309 130.864 78.7112 131.259 79.2047L132.821 77.9553C132.629 77.7154 132.6 77.5624 132.6 77.48H130.6ZM131.415 79.3609C131.909 79.7556 132.489 80.02 133.14 80.02V78.02C133.058 78.02 132.905 77.991 132.665 77.7991L131.415 79.3609ZM133.14 80.02H154.26V78.02H133.14V80.02ZM154.26 80.02C154.928 80.02 155.503 79.7411 155.957 79.2871L154.543 77.8729C154.41 78.0055 154.326 78.02 154.26 78.02V80.02ZM156.031 79.2047C156.426 78.7112 156.69 78.1309 156.69 77.48H154.69C154.69 77.5624 154.661 77.7154 154.469 77.9553L156.031 79.2047ZM156.69 77.48V62.74H154.69V77.48H156.69ZM156.69 62.74C156.69 62.1459 156.541 61.5166 156.067 61.0429C155.593 60.5692 154.964 60.42 154.37 60.42V62.42C154.656 62.42 154.687 62.4908 154.653 62.4571C154.619 62.4234 154.69 62.4541 154.69 62.74H156.69ZM154.37 60.42H146.56V62.42H154.37V60.42ZM146.56 60.42C145.421 60.42 144.453 60.0398 143.61 59.2572L142.25 60.7228C143.46 61.8468 144.913 62.42 146.56 62.42V60.42ZM143.663 59.3095C142.88 58.4667 142.5 57.4994 142.5 56.36H140.5C140.5 58.0073 141.073 59.46 142.197 60.6705L143.663 59.3095ZM142.5 56.36V53.28H140.5V56.36H142.5ZM142.5 53.28C142.5 52.142 142.878 51.226 143.637 50.4671L142.223 49.0529C141.075 50.2007 140.5 51.6314 140.5 53.28H142.5ZM143.61 50.4928C144.453 49.7102 145.421 49.33 146.56 49.33V47.33C144.913 47.33 143.46 47.9032 142.25 49.0272L143.61 50.4928ZM146.56 49.33H163.72V47.33H146.56V49.33ZM163.72 49.33C164.858 49.33 165.774 49.7082 166.533 50.4671L167.947 49.0529C166.799 47.9051 165.369 47.33 163.72 47.33V49.33ZM166.56 50.4928C167.384 51.2581 167.78 52.1665 167.78 53.28H169.78C169.78 51.6069 169.15 50.1686 167.92 49.0272L166.56 50.4928ZM167.78 53.28V77.48H169.78V53.28H167.78ZM191.777 30.62L191.07 29.9129L191.07 29.9129L191.777 30.62ZM180.117 30.62L179.394 31.3112L179.41 31.3273L179.426 31.3426L180.117 30.62ZM180.117 18.96L179.41 18.2529L179.41 18.2529L180.117 18.96ZM191.777 18.96L191.054 19.6512L191.07 19.6673L191.086 19.6826L191.777 18.96ZM191.007 90.57L191.714 91.2771L191.714 91.2771L191.007 90.57ZM180.887 90.57L180.154 91.2505L180.179 91.2776L180.206 91.3028L180.887 90.57ZM180.887 37.77L180.18 37.0629L180.18 37.0629L180.887 37.77ZM191.007 37.77L190.274 38.4504L190.299 38.4776L190.326 38.5028L191.007 37.77ZM193.307 24.68C193.307 26.6739 192.579 28.4035 191.07 29.9129L192.484 31.3271C194.348 29.4632 195.307 27.2327 195.307 24.68H193.307ZM191.07 29.9129C189.636 31.3465 187.981 32.04 186.057 32.04V34.04C188.533 34.04 190.691 33.1202 192.484 31.3271L191.07 29.9129ZM186.057 32.04C184.049 32.04 182.314 31.338 180.808 29.8974L179.426 31.3426C181.293 33.1287 183.518 34.04 186.057 34.04V32.04ZM180.84 29.9288C179.399 28.4227 178.697 26.6883 178.697 24.68H176.697C176.697 27.2184 177.608 29.444 179.394 31.3112L180.84 29.9288ZM178.697 24.68C178.697 22.756 179.39 21.1007 180.824 19.6671L179.41 18.2529C177.617 20.046 176.697 22.204 176.697 24.68H178.697ZM180.824 19.6671C182.333 18.1577 184.063 17.43 186.057 17.43V15.43C183.504 15.43 181.274 16.389 179.41 18.2529L180.824 19.6671ZM186.057 17.43C187.966 17.43 189.617 18.1483 191.054 19.6512L192.5 18.2688C190.71 16.3983 188.548 15.43 186.057 15.43V17.43ZM191.086 19.6826C192.589 21.1202 193.307 22.771 193.307 24.68H195.307C195.307 22.189 194.339 20.0265 192.468 18.2374L191.086 19.6826ZM191.547 86.94C191.547 88.0559 191.148 89.015 190.3 89.8629L191.714 91.2771C192.919 90.0717 193.547 88.6107 193.547 86.94H191.547ZM190.3 89.8629C189.541 90.6218 188.625 91 187.487 91V93C189.136 93 190.566 92.4249 191.714 91.2771L190.3 89.8629ZM187.487 91H184.517V93H187.487V91ZM184.517 91C183.378 91 182.41 90.6198 181.567 89.8372L180.206 91.3028C181.417 92.4268 182.87 93 184.517 93V91ZM181.62 89.8895C180.837 89.0467 180.457 88.0794 180.457 86.94H178.457C178.457 88.5873 179.03 90.04 180.154 91.2505L181.62 89.8895ZM180.457 86.94V41.29H178.457V86.94H180.457ZM180.457 41.29C180.457 40.152 180.835 39.236 181.594 38.4771L180.18 37.0629C179.032 38.2107 178.457 39.6414 178.457 41.29H180.457ZM181.594 38.4771C182.442 37.6292 183.401 37.23 184.517 37.23V35.23C182.846 35.23 181.385 35.8575 180.18 37.0629L181.594 38.4771ZM184.517 37.23H187.487V35.23H184.517V37.23ZM187.487 37.23C188.6 37.23 189.509 37.6263 190.274 38.4504L191.74 37.0895C190.598 35.8604 189.16 35.23 187.487 35.23V37.23ZM190.326 38.5028C191.151 39.2681 191.547 40.1765 191.547 41.29H193.547C193.547 39.6169 192.916 38.1786 191.687 37.0372L190.326 38.5028ZM191.547 41.29V86.94H193.547V41.29H191.547ZM241.326 103.33L240.468 102.816L240.464 102.823L240.46 102.83L241.326 103.33ZM236.926 107.84L236.411 106.983L236.399 106.99L236.387 106.998L236.926 107.84ZM211.846 108.06L211.139 108.767L211.139 108.767L211.846 108.06ZM211.846 97.94L211.165 97.2072L211.152 97.2198L211.139 97.2329L211.846 97.94ZM229.446 96.07L228.821 95.2891L228.778 95.3237L228.739 95.3629L229.446 96.07ZM229.446 92.44L228.739 93.1471L228.778 93.1863L228.821 93.2209L229.446 92.44ZM206.786 88.48L206.079 89.1871L206.084 89.1925L206.09 89.1979L206.786 88.48ZM204.806 41.18L203.954 40.6559L203.948 40.6655L204.806 41.18ZM209.316 36.67L208.801 35.8125L208.801 35.8125L209.316 36.67ZM236.926 36.67L236.411 37.5275L236.411 37.5275L236.926 36.67ZM241.326 41.18L240.46 41.6797L240.464 41.6871L240.468 41.6945L241.326 41.18ZM229.446 48.55L228.739 49.2571L228.778 49.2963L228.821 49.3309L229.446 48.55ZM216.686 48.55L216.061 47.7691L216.018 47.8037L215.979 47.8429L216.686 48.55ZM216.686 78.58L215.979 79.2871L216.018 79.3263L216.061 79.3609L216.686 78.58ZM229.446 78.58L228.821 77.7991L228.778 77.8337L228.739 77.8729L229.446 78.58ZM241.976 97.28C241.976 99.3043 241.472 101.142 240.468 102.816L242.183 103.844C243.379 101.851 243.976 99.6557 243.976 97.28H241.976ZM240.46 102.83C239.442 104.594 238.095 105.973 236.411 106.983L237.44 108.697C239.424 107.507 241.01 105.879 242.192 103.83L240.46 102.83ZM236.387 106.998C234.722 108.063 232.857 108.6 230.766 108.6V110.6C233.221 110.6 235.463 109.963 237.465 108.682L236.387 106.998ZM230.766 108.6H215.476V110.6H230.766V108.6ZM215.476 108.6C214.36 108.6 213.401 108.201 212.553 107.353L211.139 108.767C212.344 109.973 213.805 110.6 215.476 110.6V108.6ZM212.553 107.353C211.794 106.594 211.416 105.678 211.416 104.54H209.416C209.416 106.189 209.991 107.619 211.139 108.767L212.553 107.353ZM211.416 104.54V101.46H209.416V104.54H211.416ZM211.416 101.46C211.416 100.322 211.794 99.406 212.553 98.6471L211.139 97.2329C209.991 98.3807 209.416 99.8114 209.416 101.46H211.416ZM212.526 98.6728C213.369 97.8902 214.336 97.51 215.476 97.51V95.51C213.829 95.51 212.376 96.0832 211.165 97.2072L212.526 98.6728ZM215.476 97.51H228.456V95.51H215.476V97.51ZM228.456 97.51C229.123 97.51 229.699 97.2311 230.153 96.7771L228.739 95.3629C228.606 95.4955 228.522 95.51 228.456 95.51V97.51ZM230.071 96.8509C230.602 96.4257 230.996 95.8324 230.996 95.08H228.996C228.996 95.0882 228.996 95.0958 228.984 95.1169C228.969 95.1441 228.927 95.2046 228.821 95.2891L230.071 96.8509ZM230.996 95.08V93.43H228.996V95.08H230.996ZM230.996 93.43C230.996 92.6776 230.602 92.0843 230.071 91.6591L228.821 93.2209C228.927 93.3054 228.969 93.3659 228.984 93.3931C228.996 93.4142 228.996 93.4218 228.996 93.43H230.996ZM230.153 91.7329C229.699 91.2789 229.123 91 228.456 91V93C228.522 93 228.606 93.0145 228.739 93.1471L230.153 91.7329ZM228.456 91H215.476V93H228.456V91ZM215.476 91C212.362 91 209.715 89.9277 207.482 87.7621L206.09 89.1979C208.696 91.7256 211.843 93 215.476 93V91ZM207.493 87.7729C205.262 85.5419 204.156 82.8636 204.156 79.68H202.156C202.156 83.3898 203.47 86.5781 206.079 89.1871L207.493 87.7729ZM204.156 79.68V47.34H202.156V79.68H204.156ZM204.156 47.34C204.156 45.236 204.663 43.3625 205.663 41.6945L203.948 40.6655C202.749 42.6642 202.156 44.8974 202.156 47.34H204.156ZM205.658 41.7041C206.751 39.9273 208.141 38.5411 209.83 37.5275L208.801 35.8125C206.824 36.9989 205.207 38.6193 203.954 40.6559L205.658 41.7041ZM209.83 37.5275C211.498 36.5267 213.372 36.02 215.476 36.02V34.02C213.033 34.02 210.8 34.6133 208.801 35.8125L209.83 37.5275ZM215.476 36.02H230.766V34.02H215.476V36.02ZM230.766 36.02C232.87 36.02 234.743 36.5267 236.411 37.5275L237.44 35.8125C235.442 34.6133 233.209 34.02 230.766 34.02V36.02ZM236.411 37.5275C238.095 38.5374 239.442 39.9157 240.46 41.6797L242.192 40.6803C241.01 38.6309 239.424 37.0026 237.44 35.8125L236.411 37.5275ZM240.468 41.6945C241.469 43.3625 241.976 45.236 241.976 47.34H243.976C243.976 44.8974 243.383 42.6642 242.183 40.6655L240.468 41.6945ZM241.976 47.34V97.28H243.976V47.34H241.976ZM230.996 77.59V49.65H228.996V77.59H230.996ZM230.996 49.65C230.996 48.8835 230.656 48.2376 230.071 47.7691L228.821 49.3309C228.969 49.4491 228.996 49.5365 228.996 49.65H230.996ZM230.153 47.8429C229.699 47.3889 229.123 47.11 228.456 47.11V49.11C228.522 49.11 228.606 49.1245 228.739 49.2571L230.153 47.8429ZM228.456 47.11H217.786V49.11H228.456V47.11ZM217.786 47.11C217.135 47.11 216.555 47.3744 216.061 47.7691L217.311 49.3309C217.55 49.139 217.703 49.11 217.786 49.11V47.11ZM215.979 47.8429C215.486 48.336 215.246 48.9626 215.246 49.65H217.246C217.246 49.4574 217.299 49.3506 217.393 49.2571L215.979 47.8429ZM215.246 49.65V77.59H217.246V49.65H215.246ZM215.246 77.59C215.246 78.2576 215.525 78.8331 215.979 79.2871L217.393 77.8729C217.26 77.7402 217.246 77.6558 217.246 77.59H215.246ZM216.061 79.3609C216.555 79.7556 217.135 80.02 217.786 80.02V78.02C217.703 78.02 217.55 77.991 217.311 77.7991L216.061 79.3609ZM217.786 80.02H228.456V78.02H217.786V80.02ZM228.456 80.02C229.123 80.02 229.699 79.7411 230.153 79.2871L228.739 77.8729C228.606 78.0055 228.522 78.02 228.456 78.02V80.02ZM230.071 79.3609C230.602 78.9357 230.996 78.3424 230.996 77.59H228.996C228.996 77.5982 228.996 77.6058 228.984 77.6269C228.969 77.6541 228.927 77.7146 228.821 77.7991L230.071 79.3609ZM266.005 30.62L265.298 29.9129L265.298 29.9129L266.005 30.62ZM254.345 30.62L253.623 31.3112L253.638 31.3273L253.654 31.3426L254.345 30.62ZM254.345 18.96L253.638 18.2529L253.638 18.2529L254.345 18.96ZM266.005 18.96L265.283 19.6512L265.298 19.6673L265.314 19.6826L266.005 18.96ZM265.235 90.57L265.942 91.2771L265.942 91.2771L265.235 90.57ZM255.115 90.57L254.383 91.2505L254.408 91.2776L254.435 91.3028L255.115 90.57ZM255.115 37.77L254.408 37.0629L254.408 37.0629L255.115 37.77ZM265.235 37.77L264.503 38.4504L264.528 38.4776L264.555 38.5028L265.235 37.77ZM267.535 24.68C267.535 26.6739 266.808 28.4035 265.298 29.9129L266.712 31.3271C268.576 29.4632 269.535 27.2327 269.535 24.68H267.535ZM265.298 29.9129C263.865 31.3465 262.209 32.04 260.285 32.04V34.04C262.761 34.04 264.919 33.1202 266.712 31.3271L265.298 29.9129ZM260.285 32.04C258.277 32.04 256.543 31.338 255.037 29.8974L253.654 31.3426C255.521 33.1287 257.747 34.04 260.285 34.04V32.04ZM255.068 29.9288C253.627 28.4227 252.925 26.6883 252.925 24.68H250.925C250.925 27.2184 251.837 29.444 253.623 31.3112L255.068 29.9288ZM252.925 24.68C252.925 22.756 253.619 21.1007 255.052 19.6671L253.638 18.2529C251.845 20.046 250.925 22.204 250.925 24.68H252.925ZM255.052 19.6671C256.562 18.1577 258.291 17.43 260.285 17.43V15.43C257.733 15.43 255.502 16.389 253.638 18.2529L255.052 19.6671ZM260.285 17.43C262.194 17.43 263.845 18.1483 265.283 19.6512L266.728 18.2688C264.939 16.3983 262.776 15.43 260.285 15.43V17.43ZM265.314 19.6826C266.817 21.1202 267.535 22.771 267.535 24.68H269.535C269.535 22.189 268.567 20.0265 266.697 18.2374L265.314 19.6826ZM265.775 86.94C265.775 88.0559 265.376 89.015 264.528 89.8629L265.942 91.2771C267.148 90.0717 267.775 88.6107 267.775 86.94H265.775ZM264.528 89.8629C263.769 90.6218 262.853 91 261.715 91V93C263.364 93 264.795 92.4249 265.942 91.2771L264.528 89.8629ZM261.715 91H258.745V93H261.715V91ZM258.745 91C257.606 91 256.639 90.6198 255.796 89.8372L254.435 91.3028C255.645 92.4268 257.098 93 258.745 93V91ZM255.848 89.8895C255.066 89.0467 254.685 88.0794 254.685 86.94H252.685C252.685 88.5873 253.259 90.04 254.383 91.2505L255.848 89.8895ZM254.685 86.94V41.29H252.685V86.94H254.685ZM254.685 41.29C254.685 40.152 255.064 39.236 255.822 38.4771L254.408 37.0629C253.261 38.2107 252.685 39.6414 252.685 41.29H254.685ZM255.822 38.4771C256.67 37.6292 257.629 37.23 258.745 37.23V35.23C257.075 35.23 255.614 35.8575 254.408 37.0629L255.822 38.4771ZM258.745 37.23H261.715V35.23H258.745V37.23ZM261.715 37.23C262.829 37.23 263.737 37.6263 264.503 38.4504L265.968 37.0895C264.827 35.8604 263.389 35.23 261.715 35.23V37.23ZM264.555 38.5028C265.379 39.2681 265.775 40.1765 265.775 41.29H267.775C267.775 39.6169 267.145 38.1786 265.916 37.0372L264.555 38.5028ZM265.775 41.29V86.94H267.775V41.29H265.775ZM313.574 88.48L314.281 89.1871L314.281 89.1871L313.574 88.48ZM281.014 88.48L280.307 89.1871L280.313 89.1925L280.318 89.1979L281.014 88.48ZM279.034 41.18L278.183 40.6559L278.177 40.6655L279.034 41.18ZM283.544 36.67L283.03 35.8125L283.03 35.8125L283.544 36.67ZM311.154 36.67L310.64 37.5275L310.64 37.5275L311.154 36.67ZM315.554 41.18L314.688 41.6797L314.692 41.6871L314.697 41.6945L315.554 41.18ZM303.674 48.55L302.967 49.2571L303.006 49.2963L303.05 49.3309L303.674 48.55ZM290.914 48.55L290.29 47.7691L290.246 47.8037L290.207 47.8429L290.914 48.55ZM290.914 78.58L290.207 79.2871L290.246 79.3263L290.29 79.3609L290.914 78.58ZM303.674 78.58L303.05 77.7991L303.006 77.8337L302.967 77.8729L303.674 78.58ZM316.204 79.68C316.204 82.8636 315.098 85.5419 312.867 87.7729L314.281 89.1871C316.891 86.5781 318.204 83.3898 318.204 79.68H316.204ZM312.867 87.7729C310.712 89.9286 308.107 91 304.994 91V93C308.628 93 311.744 91.7247 314.281 89.1871L312.867 87.7729ZM304.994 91H289.704V93H304.994V91ZM289.704 91C286.591 91 283.944 89.9277 281.711 87.7621L280.318 89.1979C282.925 91.7256 286.071 93 289.704 93V91ZM281.721 87.7729C279.491 85.5419 278.384 82.8636 278.384 79.68H276.384C276.384 83.3898 277.698 86.5781 280.307 89.1871L281.721 87.7729ZM278.384 79.68V47.34H276.384V79.68H278.384ZM278.384 47.34C278.384 45.236 278.891 43.3625 279.892 41.6945L278.177 40.6655C276.978 42.6642 276.384 44.8974 276.384 47.34H278.384ZM279.886 41.7041C280.979 39.9273 282.37 38.5411 284.059 37.5275L283.03 35.8125C281.053 36.9989 279.436 38.6193 278.183 40.6559L279.886 41.7041ZM284.059 37.5275C285.727 36.5267 287.6 36.02 289.704 36.02V34.02C287.262 34.02 285.029 34.6133 283.03 35.8125L284.059 37.5275ZM289.704 36.02H304.994V34.02H289.704V36.02ZM304.994 36.02C307.098 36.02 308.972 36.5267 310.64 37.5275L311.669 35.8125C309.67 34.6133 307.437 34.02 304.994 34.02V36.02ZM310.64 37.5275C312.323 38.5374 313.67 39.9157 314.688 41.6797L316.421 40.6803C315.238 38.6309 313.652 37.0026 311.669 35.8125L310.64 37.5275ZM314.697 41.6945C315.698 43.3625 316.204 45.236 316.204 47.34H318.204C318.204 44.8974 317.611 42.6642 316.412 40.6655L314.697 41.6945ZM316.204 47.34V79.68H318.204V47.34H316.204ZM305.224 77.59V49.65H303.224V77.59H305.224ZM305.224 49.65C305.224 48.8835 304.885 48.2376 304.299 47.7691L303.05 49.3309C303.197 49.4491 303.224 49.5365 303.224 49.65H305.224ZM304.381 47.8429C303.927 47.3889 303.352 47.11 302.684 47.11V49.11C302.75 49.11 302.835 49.1245 302.967 49.2571L304.381 47.8429ZM302.684 47.11H292.014V49.11H302.684V47.11ZM292.014 47.11C291.363 47.11 290.783 47.3744 290.29 47.7691L291.539 49.3309C291.779 49.139 291.932 49.11 292.014 49.11V47.11ZM290.207 47.8429C289.714 48.336 289.474 48.9626 289.474 49.65H291.474C291.474 49.4574 291.528 49.3506 291.621 49.2571L290.207 47.8429ZM289.474 49.65V77.59H291.474V49.65H289.474ZM289.474 77.59C289.474 78.2576 289.753 78.8331 290.207 79.2871L291.621 77.8729C291.489 77.7402 291.474 77.6558 291.474 77.59H289.474ZM290.29 79.3609C290.783 79.7556 291.363 80.02 292.014 80.02V78.02C291.932 78.02 291.779 77.991 291.539 77.7991L290.29 79.3609ZM292.014 80.02H302.684V78.02H292.014V80.02ZM302.684 80.02C303.352 80.02 303.927 79.7411 304.381 79.2871L302.967 77.8729C302.835 78.0055 302.75 78.02 302.684 78.02V80.02ZM304.299 79.3609C304.831 78.9357 305.224 78.3424 305.224 77.59H303.224C303.224 77.5982 303.224 77.6058 303.213 77.6269C303.198 77.6541 303.155 77.7146 303.05 77.7991L304.299 79.3609ZM341.774 29.3L340.825 28.9838L340.821 28.9962L340.817 29.0088L341.774 29.3ZM340.014 34.14L339.095 33.7461L339.09 33.7573L339.085 33.7686L340.014 34.14ZM338.694 37.33L339.572 37.8089L339.591 37.7732L339.608 37.7361L338.694 37.33ZM336.824 39.42L337.361 40.2637L337.387 40.247L337.412 40.2287L336.824 39.42ZM327.584 37.88L326.734 38.4064L326.743 38.4207L326.752 38.4347L327.584 37.88ZM327.144 33.04L326.249 32.5928L326.229 32.6334L326.213 32.6756L327.144 33.04ZM327.474 32.27L326.642 31.7153L326.568 31.8267L326.525 31.9538L327.474 32.27ZM327.804 31.5L326.93 31.0144L326.866 31.1296L326.834 31.2575L327.804 31.5ZM327.584 29.08L328.464 28.6059L328.445 28.5696L328.422 28.535L327.584 29.08ZM328.574 18.74L329.281 19.4471L329.289 19.4393L329.297 19.4312L328.574 18.74ZM340.234 18.74L339.511 19.4312L339.519 19.4393L339.527 19.4471L340.234 18.74ZM341.654 24.57C341.654 25.8269 341.388 27.2941 340.825 28.9838L342.723 29.6162C343.333 27.7859 343.654 26.0998 343.654 24.57H341.654ZM340.817 29.0088C340.314 30.6624 339.74 32.2413 339.095 33.7461L340.933 34.5339C341.608 32.9587 342.207 31.3109 342.731 29.5912L340.817 29.0088ZM339.085 33.7686C338.499 35.2339 338.065 36.2823 337.78 36.9239L339.608 37.7361C339.909 37.0577 340.355 35.9794 340.942 34.5114L339.085 33.7686ZM337.816 36.8511C337.453 37.5169 336.933 38.1042 336.236 38.6113L337.412 40.2287C338.328 39.5625 339.055 38.7564 339.572 37.8089L337.816 36.8511ZM336.287 38.5763C335.64 38.9879 334.946 39.19 334.184 39.19V41.19C335.328 41.19 336.394 40.8788 337.361 40.2637L336.287 38.5763ZM334.184 39.19H331.764V41.19H334.184V39.19ZM331.764 39.19C330.358 39.19 329.269 38.6043 328.416 37.3253L326.752 38.4347C327.953 40.2357 329.649 41.19 331.764 41.19V39.19ZM328.434 37.3536C327.647 36.0813 327.53 34.7979 328.075 33.4044L326.213 32.6756C325.438 34.6554 325.615 36.5987 326.734 38.4064L328.434 37.3536ZM328.038 33.4872C328.198 33.1674 328.33 32.8652 328.423 32.5862L326.525 31.9538C326.472 32.1147 326.383 32.3259 326.249 32.5928L328.038 33.4872ZM328.306 32.8247C328.525 32.4967 328.677 32.1313 328.774 31.7425L326.834 31.2575C326.784 31.4553 326.717 31.6033 326.642 31.7153L328.306 32.8247ZM328.678 31.9856C329.276 30.9102 329.063 29.7179 328.464 28.6059L326.703 29.5541C327.131 30.3488 327.066 30.7698 326.93 31.0144L328.678 31.9856ZM328.422 28.535C327.56 27.2079 327.154 25.8911 327.154 24.57H325.154C325.154 26.3289 325.701 28.0188 326.745 29.625L328.422 28.535ZM327.154 24.57C327.154 22.563 327.854 20.8737 329.281 19.4471L327.867 18.0329C326.067 19.833 325.154 22.0304 325.154 24.57H327.154ZM329.297 19.4312C330.727 17.9358 332.412 17.21 334.404 17.21V15.21C331.85 15.21 329.648 16.1708 327.851 18.0488L329.297 19.4312ZM334.404 17.21C336.396 17.21 338.081 17.9358 339.511 19.4312L340.957 18.0488C339.16 16.1708 336.958 15.21 334.404 15.21V17.21ZM339.527 19.4471C340.953 20.8737 341.654 22.563 341.654 24.57H343.654C343.654 22.0304 342.741 19.833 340.941 18.0329L339.527 19.4471ZM387.695 88.48L388.403 89.1871L388.403 89.1871L387.695 88.48ZM355.135 88.48L354.428 89.1871L354.434 89.1925L354.439 89.1979L355.135 88.48ZM352.935 71.65L353.643 72.3571L353.643 72.3571L352.935 71.65ZM363.165 71.65L362.433 72.3305L362.445 72.344L362.458 72.3571L363.165 71.65ZM377.795 78.58L377.171 77.7991L377.128 77.8337L377.088 77.8729L377.795 78.58ZM377.465 72.31L377.817 71.3737L377.792 71.3646L377.768 71.3568L377.465 72.31ZM361.515 67.25L361.185 68.1939L361.199 68.1987L361.213 68.2032L361.515 67.25ZM354.255 61.97L353.45 62.5624L353.455 62.57L353.461 62.5774L354.255 61.97ZM353.155 41.18L352.313 40.6409L352.305 40.6531L352.298 40.6655L353.155 41.18ZM357.665 36.78L358.18 37.6375L358.192 37.6301L358.205 37.6223L357.665 36.78ZM385.275 36.78L384.736 37.6223L384.749 37.6301L384.761 37.6375L385.275 36.78ZM389.675 41.18L390.533 40.6655L390.533 40.6655L389.675 41.18ZM389.895 55.37L390.603 56.0771L390.616 56.064L390.628 56.0505L389.895 55.37ZM379.775 55.37L379.043 56.0505L379.055 56.064L379.068 56.0771L379.775 55.37ZM377.795 48.55L377.088 49.2571L377.128 49.2963L377.171 49.3309L377.795 48.55ZM365.475 54.82L365.778 53.8668L365.748 53.8574L365.718 53.8499L365.475 54.82ZM381.425 59.88L381.123 60.8332L381.123 60.8332L381.425 59.88ZM388.575 65.05L387.759 65.6267L387.764 65.6346L387.77 65.6424L388.575 65.05ZM390.325 79.68C390.325 82.8636 389.219 85.5419 386.988 87.7729L388.403 89.1871C391.012 86.5781 392.325 83.3898 392.325 79.68H390.325ZM386.988 87.7729C384.833 89.9286 382.228 91 379.115 91V93C382.749 93 385.865 91.7247 388.403 89.1871L386.988 87.7729ZM379.115 91H363.825V93H379.115V91ZM363.825 91C360.712 91 358.065 89.9277 355.832 87.7621L354.439 89.1979C357.046 91.7256 360.192 93 363.825 93V91ZM355.843 87.7729C353.612 85.5419 352.505 82.8636 352.505 79.68H350.505C350.505 83.3898 351.819 86.5781 354.428 89.1871L355.843 87.7729ZM352.505 79.68V75.17H350.505V79.68H352.505ZM352.505 75.17C352.505 74.032 352.884 73.116 353.643 72.3571L352.228 70.9429C351.081 72.0907 350.505 73.5214 350.505 75.17H352.505ZM353.643 72.3571C354.491 71.5092 355.45 71.11 356.565 71.11V69.11C354.895 69.11 353.434 69.7375 352.228 70.9429L353.643 72.3571ZM356.565 71.11H359.645V69.11H356.565V71.11ZM359.645 71.11C360.759 71.11 361.667 71.5063 362.433 72.3305L363.898 70.9695C362.757 69.7404 361.319 69.11 359.645 69.11V71.11ZM362.458 72.3571C363.217 73.116 363.595 74.032 363.595 75.17H365.595C365.595 73.5214 365.02 72.0907 363.873 70.9429L362.458 72.3571ZM363.595 75.17V77.59H365.595V75.17H363.595ZM363.595 77.59C363.595 78.2406 363.774 78.9069 364.3 79.3953C364.812 79.8707 365.486 80.02 366.135 80.02V78.02C365.759 78.02 365.662 77.931 365.661 77.9297C365.66 77.9284 365.648 77.9189 365.633 77.8778C365.616 77.831 365.595 77.7413 365.595 77.59H363.595ZM366.135 80.02H376.805V78.02H366.135V80.02ZM376.805 80.02C377.473 80.02 378.049 79.7411 378.503 79.2871L377.088 77.8729C376.956 78.0055 376.871 78.02 376.805 78.02V80.02ZM378.42 79.3609C378.952 78.9357 379.345 78.3424 379.345 77.59H377.345C377.345 77.5982 377.345 77.6058 377.334 77.6269C377.319 77.6541 377.276 77.7146 377.171 77.7991L378.42 79.3609ZM379.345 77.59V73.52H377.345V77.59H379.345ZM379.345 73.52C379.345 73.0537 379.226 72.5906 378.934 72.1893C378.646 71.7931 378.246 71.5348 377.817 71.3737L377.114 73.2463C377.271 73.3052 377.312 73.3585 377.317 73.3657C377.318 73.3678 377.345 73.3996 377.345 73.52H379.345ZM377.768 71.3568L361.818 66.2968L361.213 68.2032L377.163 73.2632L377.768 71.3568ZM361.846 66.3061C359.099 65.3446 356.839 63.7025 355.05 61.3625L353.461 62.5774C355.485 65.2241 358.066 67.102 361.185 68.1939L361.846 66.3061ZM355.061 61.3776C353.357 59.0594 352.505 56.4445 352.505 53.5H350.505C350.505 56.8621 351.488 59.8939 353.45 62.5624L355.061 61.3776ZM352.505 53.5V47.34H350.505V53.5H352.505ZM352.505 47.34C352.505 45.236 353.012 43.3625 354.013 41.6945L352.298 40.6655C351.099 42.6642 350.505 44.8974 350.505 47.34H352.505ZM353.998 41.7191C355.089 40.0133 356.481 38.6566 358.18 37.6375L357.151 35.9225C355.183 37.1034 353.568 38.68 352.313 40.6409L353.998 41.7191ZM358.205 37.6223C359.87 36.5566 361.734 36.02 363.825 36.02V34.02C361.37 34.02 359.128 34.6567 357.126 35.9377L358.205 37.6223ZM363.825 36.02H379.115V34.02H363.825V36.02ZM379.115 36.02C381.207 36.02 383.071 36.5566 384.736 37.6223L385.815 35.9377C383.813 34.6567 381.571 34.02 379.115 34.02V36.02ZM384.761 37.6375C386.454 38.653 387.802 40.0019 388.818 41.6945L390.533 40.6655C389.349 38.6914 387.764 37.107 385.79 35.9225L384.761 37.6375ZM388.818 41.6945C389.819 43.3625 390.325 45.236 390.325 47.34H392.325C392.325 44.8974 391.732 42.6642 390.533 40.6655L388.818 41.6945ZM390.325 47.34V51.74H392.325V47.34H390.325ZM390.325 51.74C390.325 52.8794 389.945 53.8467 389.163 54.6895L390.628 56.0505C391.752 54.84 392.325 53.3873 392.325 51.74H390.325ZM389.188 54.6629C388.429 55.4218 387.514 55.8 386.375 55.8V57.8C388.024 57.8 389.455 57.2249 390.603 56.0771L389.188 54.6629ZM386.375 55.8H383.295V57.8H386.375V55.8ZM383.295 55.8C382.157 55.8 381.241 55.4218 380.483 54.6629L379.068 56.0771C380.216 57.2249 381.647 57.8 383.295 57.8V55.8ZM380.508 54.6895C379.726 53.8467 379.345 52.8794 379.345 51.74H377.345C377.345 53.3873 377.919 54.84 379.043 56.0505L380.508 54.6895ZM379.345 51.74V49.65H377.345V51.74H379.345ZM379.345 49.65C379.345 48.8835 379.006 48.2376 378.42 47.7691L377.171 49.3309C377.319 49.4491 377.345 49.5365 377.345 49.65H379.345ZM378.503 47.8429C378.049 47.3889 377.473 47.11 376.805 47.11V49.11C376.871 49.11 376.956 49.1245 377.088 49.2571L378.503 47.8429ZM376.805 47.11H366.135V49.11H376.805V47.11ZM366.135 47.11C365.468 47.11 364.784 47.2775 364.273 47.7879C363.763 48.2982 363.595 48.9825 363.595 49.65H365.595C365.595 49.2908 365.685 49.2051 365.688 49.2021C365.691 49.1991 365.776 49.11 366.135 49.11V47.11ZM363.595 49.65V53.5H365.595V49.65H363.595ZM363.595 53.5C363.595 53.9903 363.692 54.4982 363.983 54.9347C364.288 55.3914 364.735 55.6657 365.233 55.7901L365.718 53.8499C365.667 53.8371 365.647 53.8243 365.645 53.8229C365.645 53.8228 365.648 53.8254 365.648 53.8253C365.645 53.8218 365.595 53.743 365.595 53.5H363.595ZM365.173 55.7732L381.123 60.8332L381.728 58.9268L365.778 53.8668L365.173 55.7732ZM381.123 60.8332C383.929 61.723 386.129 63.318 387.759 65.6267L389.392 64.4733C387.502 61.7953 384.935 59.9437 381.728 58.9268L381.123 60.8332ZM387.77 65.6424C389.474 67.9606 390.325 70.5755 390.325 73.52H392.325C392.325 70.1579 391.343 67.1261 389.381 64.4576L387.77 65.6424ZM390.325 73.52V79.68H392.325V73.52H390.325Z" fill="#FFB100" mask="url(#path-3-outside-1_133_5)"/>
<path d="M57.1812 30.4194L57.9249 88.8502L96.7579 88.5992L96.0142 28.2904L57.1812 30.4194Z" fill="white"/>
<path d="M56.679 35.0864L66.106 29.6384L87.8979 30.1684L56.5581 51.6441L56.679 35.0864Z" fill="#D80D1A"/>
<path d="M57.1812 62.5029L96.507 35.6628L96.2559 53.643L57.051 80.9851L57.1812 62.5029Z" fill="#1D86FA"/>
<path d="M63.4192 88.5992L96.3859 65.2548L95.8839 82.4819L83.519 91.3511L63.4192 88.5992Z" fill="#D80D1A"/>
<path d="M54.6802 30.1684L55.4332 89.7241L59.0497 88.3482L58.306 28.7924L54.6802 30.1684Z" fill="#A1D2D6"/>
<path d="M94.3872 29.1643L94.7591 88.5992L98.357 88.1902L97.8828 29.0435L94.3872 29.1643Z" fill="#A1D2D6"/>
<path d="M54.234 30.7633C54.829 31.4234 96.9717 30.9121 97.7062 30.5402C98.4406 30.1683 102.178 27.0725 101.89 22.1265C101.602 17.2457 98.2268 15.7024 98.2268 15.7024C98.2268 15.7024 97.576 10.8122 91.9514 7.0656C87.9631 4.40669 82.794 3.63505 76.3048 3.69083C69.1462 3.75591 62.4245 4.19286 58.148 8.46942C54.0388 12.5786 53.8714 16.5856 53.8714 16.5856C53.8714 16.5856 50.2363 17.7012 50.2363 23.1678C50.227 28.56 54.234 30.7633 54.234 30.7633Z" fill="#C8C8C8"/>
<path d="M54.8941 87.8183C54.2805 88.3296 54.1596 91.5092 54.1596 91.5092C54.1596 91.5092 50.7105 93.3685 51.2032 97.4127C51.6495 101.029 54.6709 102.433 54.6709 102.433C54.6709 102.433 56.0841 108.55 60.7976 111.879C65.8179 115.421 70.7638 115.569 77.848 115.569C85.5273 115.569 90.7614 114.974 94.8985 111.07C99.6399 106.579 99.9932 101.922 99.9932 101.922C99.9932 101.922 102.726 100.295 102.652 96.6039C102.578 92.913 99.5563 91.5092 99.5563 91.5092C99.5563 91.5092 98.9241 88.5621 98.3756 87.8183C98.0966 87.4371 87.0706 87.5394 76.2304 87.5952C65.7714 87.6417 55.3682 87.4185 54.8941 87.8183Z" fill="#C8C8C8"/>
<path d="M74.2408 111.953C74.1664 113.431 81.9851 113.394 87.7491 112.102C94.322 110.623 96.4603 105.017 96.0884 104.571C95.7165 104.125 89.0786 104.274 88.7067 104.646C88.3348 105.017 86.6428 108.485 83.7608 109.666C80.8787 110.847 74.2965 110.828 74.2408 111.953Z" fill="#858585"/>
<path d="M51.4355 98.3888L102.522 98.1564C102.522 98.1564 102.355 99.2348 101.657 100.285C100.979 101.299 100.002 101.912 100.002 101.912L54.708 102.442C54.708 102.442 53.3507 101.708 52.765 100.983C51.4727 99.3836 51.4355 98.3888 51.4355 98.3888Z" fill="#858585"/>
<path d="M51.2124 95.8508L102.475 95.1907C102.475 95.1907 102.308 93.8427 101.397 92.8293C100.635 91.974 99.5562 91.4999 99.5562 91.4999L53.4994 91.9461C53.4994 91.9461 52.5697 92.6341 52.0212 93.4243C51.3612 94.3819 51.2124 95.8508 51.2124 95.8508Z" fill="#E1E0E0"/>
<path d="M50.4131 21.2527C50.4131 21.2527 60.6582 19.2445 75.6448 19.0214C90.6314 18.7983 101.425 19.6815 101.425 19.6815C101.425 19.6815 100.895 17.9151 100.077 17.0319C99.2589 16.1487 98.2362 15.7024 98.2362 15.7024C98.2362 15.7024 84.1886 15.1911 75.6913 15.1167C65.4275 15.0331 53.8715 16.5856 53.8715 16.5856C53.8715 16.5856 52.635 16.9389 51.7983 18.0266C50.6083 19.5606 50.4131 21.2527 50.4131 21.2527Z" fill="#E1E0E0"/>
<path d="M50.2456 24.1347C50.2456 24.1347 58.2223 22.5728 76.0072 22.3497C93.7922 22.1266 101.88 23.4188 101.88 23.4188C101.88 23.4188 101.955 24.4973 101.602 25.5292C101.211 26.682 100.597 27.4444 100.597 27.4444C100.597 27.4444 85.3041 26.4217 76.0072 26.4961C66.7104 26.5705 51.5379 28.0394 51.5379 28.0394C51.5379 28.0394 50.8964 26.933 50.6733 26.273C50.4594 25.585 50.2456 24.1347 50.2456 24.1347Z" fill="#858585"/>
<path d="M73.302 18.0824C73.302 18.8726 68.0679 19.3375 62.5083 19.6722C59.3939 19.8581 53.8994 21.3921 53.8994 19.3375C53.8994 17.2829 55.8889 16.8924 62.6385 16.7529C69.388 16.6135 73.302 17.0226 73.302 18.0824Z" fill="white"/>
<path d="M73.7016 5.83846C73.8782 6.34049 71.052 7.29807 68.8672 9.61299C67.3239 11.2492 66.8126 12.7925 65.7528 13.1923C64.6929 13.5921 59.0032 14.122 58.9289 12.932C58.8359 11.2771 60.0259 8.65541 62.8336 7.10283C67.2775 4.63916 73.3669 4.90877 73.7016 5.83846Z" fill="white"/>
</svg>
